<svg width="20" height="20" viewBox="0 0 20 20" fill="none" xmlns="http://www.w3.org/2000/svg">
<path d="M7.87892 9.12132C8.44153 9.68393 9.20459 10 10.0002 10C10.3942 10 10.7843 9.9224 11.1483 9.77164C11.5123 9.62087 11.843 9.3999 12.1216 9.12132C12.4001 8.84274 12.6211 8.51203 12.7719 8.14805C12.9226 7.78407 13.0002 7.39397 13.0002 7C13.0002 6.20435 12.6842 5.44129 12.1216 4.87868C11.559 4.31607 10.7959 4 10.0002 4C9.20459 4 8.44153 4.31607 7.87892 4.87868C7.31631 5.44129 7.00024 6.20435 7.00024 7C7.00024 7.79565 7.31631 8.55871 7.87892 9.12132ZM10.0002 19.2395C9.81814 19.0266 9.577 18.7397 9.29472 18.3919C8.64492 17.5913 7.77933 16.4706 6.91473 15.1891C6.04917 13.9062 5.19078 12.4713 4.5503 11.0417C3.90688 9.60548 3.50024 8.21133 3.50024 7C3.50024 5.27609 4.18506 3.62279 5.40405 2.40381C6.62304 1.18482 8.27634 0.5 10.0002 0.5C11.7242 0.5 13.3775 1.18482 14.5964 2.40381C15.8154 3.62279 16.5002 5.27609 16.5002 7C16.5002 8.21133 16.0936 9.60548 15.4502 11.0417C14.8097 12.4713 13.9513 13.9062 13.0858 15.1891C12.2212 16.4706 11.3556 17.5913 10.7058 18.3919C10.4235 18.7397 10.1824 19.0266 10.0002 19.2395Z" stroke="#272727"/>
</svg>
