<svg width="16" height="16" viewBox="0 0 16 16" fill="none" xmlns="http://www.w3.org/2000/svg">
<path d="M6.23238 7.36777C6.70122 7.83661 7.33711 8.1 8.00015 8.1C8.32845 8.1 8.65354 8.03534 8.95686 7.9097C9.26017 7.78406 9.53577 7.59991 9.76791 7.36777C10.0001 7.13562 10.1842 6.86002 10.3098 6.55671C10.4355 6.25339 10.5001 5.9283 10.5001 5.6C10.5001 4.93696 10.2368 4.30107 9.76791 3.83223C9.29907 3.36339 8.66319 3.1 8.00015 3.1C7.33711 3.1 6.70122 3.36339 6.23238 3.83223C5.76354 4.30107 5.50015 4.93696 5.50015 5.6C5.50015 6.26304 5.76354 6.89893 6.23238 7.36777ZM8.00014 15.2374C7.8663 15.0797 7.70128 14.8821 7.51338 14.6505C6.99482 14.0116 6.30423 13.1174 5.61463 12.0953C4.92407 11.0718 4.24068 9.92913 3.73145 8.79245C3.21928 7.64923 2.90015 6.54883 2.90015 5.6C2.90015 4.2474 3.43747 2.95019 4.3939 1.99376C5.35034 1.03732 6.64754 0.5 8.00015 0.5C9.35275 0.5 10.65 1.03732 11.6064 1.99376C12.5628 2.95019 13.1001 4.2474 13.1001 5.6C13.1001 6.54883 12.781 7.64923 12.2688 8.79245C11.7596 9.92913 11.0762 11.0718 10.3857 12.0953C9.69606 13.1174 9.00548 14.0116 8.48692 14.6505C8.29901 14.8821 8.13399 15.0797 8.00014 15.2374Z" stroke="#272727"/>
</svg>
