<svg width="20" height="13" viewBox="0 0 20 13" fill="none" xmlns="http://www.w3.org/2000/svg">
<path fill-rule="evenodd" clip-rule="evenodd" d="M0 0.928571C0 0.814907 0.0585317 0.705898 0.162719 0.625526C0.266905 0.545153 0.408213 0.5 0.555556 0.5H19.4444C19.5918 0.5 19.7331 0.545153 19.8373 0.625526C19.9415 0.705898 20 0.814907 20 0.928571C20 1.04224 19.9415 1.15124 19.8373 1.23162C19.7331 1.31199 19.5918 1.35714 19.4444 1.35714H0.555556C0.408213 1.35714 0.266905 1.31199 0.162719 1.23162C0.0585317 1.15124 0 1.04224 0 0.928571ZM0 6.5C0 6.38634 0.0585317 6.27733 0.162719 6.19695C0.266905 6.11658 0.408213 6.07143 0.555556 6.07143H19.4444C19.5918 6.07143 19.7331 6.11658 19.8373 6.19695C19.9415 6.27733 20 6.38634 20 6.5C20 6.61366 19.9415 6.72267 19.8373 6.80305C19.7331 6.88342 19.5918 6.92857 19.4444 6.92857H0.555556C0.408213 6.92857 0.266905 6.88342 0.162719 6.80305C0.0585317 6.72267 0 6.61366 0 6.5ZM0 12.0714C0 11.9578 0.0585317 11.8488 0.162719 11.7684C0.266905 11.688 0.408213 11.6429 0.555556 11.6429H19.4444C19.5918 11.6429 19.7331 11.688 19.8373 11.7684C19.9415 11.8488 20 11.9578 20 12.0714C20 12.1851 19.9415 12.2941 19.8373 12.3745C19.7331 12.4548 19.5918 12.5 19.4444 12.5H0.555556C0.408213 12.5 0.266905 12.4548 0.162719 12.3745C0.0585317 12.2941 0 12.1851 0 12.0714Z" fill="black"/>
</svg>
