<svg width="26" height="16" viewBox="0 0 26 16" fill="none" xmlns="http://www.w3.org/2000/svg">
<path fill-rule="evenodd" clip-rule="evenodd" d="M0.000244141 0.571429C0.000244141 0.419876 0.0763353 0.274531 0.211778 0.167368C0.347221 0.060204 0.530921 0 0.722466 0H25.278C25.4696 0 25.6533 0.060204 25.7887 0.167368C25.9242 0.274531 26.0002 0.419876 26.0002 0.571429C26.0002 0.722981 25.9242 0.868326 25.7887 0.97549C25.6533 1.08265 25.4696 1.14286 25.278 1.14286H0.722466C0.530921 1.14286 0.347221 1.08265 0.211778 0.97549C0.0763353 0.868326 0.000244141 0.722981 0.000244141 0.571429ZM0.000244141 8C0.000244141 7.84845 0.0763353 7.7031 0.211778 7.59594C0.347221 7.48878 0.530921 7.42857 0.722466 7.42857H25.278C25.4696 7.42857 25.6533 7.48878 25.7887 7.59594C25.9242 7.7031 26.0002 7.84845 26.0002 8C26.0002 8.15155 25.9242 8.2969 25.7887 8.40406C25.6533 8.51123 25.4696 8.57143 25.278 8.57143H0.722466C0.530921 8.57143 0.347221 8.51123 0.211778 8.40406C0.0763353 8.2969 0.000244141 8.15155 0.000244141 8ZM0.000244141 15.4286C0.000244141 15.277 0.0763353 15.1317 0.211778 15.0245C0.347221 14.9173 0.530921 14.8571 0.722466 14.8571H25.278C25.4696 14.8571 25.6533 14.9173 25.7887 15.0245C25.9242 15.1317 26.0002 15.277 26.0002 15.4286C26.0002 15.5801 25.9242 15.7255 25.7887 15.8326C25.6533 15.9398 25.4696 16 25.278 16H0.722466C0.530921 16 0.347221 15.9398 0.211778 15.8326C0.0763353 15.7255 0.000244141 15.5801 0.000244141 15.4286Z" fill="black"/>
</svg>
