<svg width="25" height="25" viewBox="0 0 25 25" fill="none" xmlns="http://www.w3.org/2000/svg">
<path d="M25.0002 0H0.000325501L0.000244141 5.85938V25H5.85962H19.1409H25.0002V5.85938V0Z" fill="url(#paint0_radial_1727_6508)"/>
<path d="M25.0002 25V0L0.000244141 1.58946e-05V25H25.0002Z" fill="url(#paint1_radial_1727_6508)"/>
<path d="M12.5011 4.1665C10.2379 4.1665 9.95383 4.17642 9.06499 4.21684C8.17783 4.2575 7.57224 4.39792 7.04241 4.604C6.49424 4.81683 6.02933 5.10158 5.56616 5.56491C5.10258 6.02815 4.81783 6.49306 4.60433 7.04097C4.39766 7.57097 4.25708 8.1768 4.21716 9.06354C4.17741 9.95245 4.16699 10.2366 4.16699 12.4998C4.16699 14.7631 4.17699 15.0462 4.21733 15.9351C4.25816 16.8222 4.39858 17.4278 4.60449 17.9576C4.81749 18.5058 5.10224 18.9707 5.56558 19.4339C6.02866 19.8974 6.49358 20.1828 7.04133 20.3957C7.57158 20.6018 8.17724 20.7422 9.06424 20.7828C9.95316 20.8233 10.237 20.8332 12.5001 20.8332C14.7635 20.8332 15.0467 20.8233 15.9355 20.7828C16.8227 20.7422 17.4289 20.6018 17.9592 20.3957C18.5071 20.1828 18.9713 19.8974 19.4343 19.4339C19.8979 18.9707 20.1826 18.5058 20.3962 17.9579C20.601 17.4278 20.7417 16.822 20.7833 15.9352C20.8232 15.0464 20.8337 14.7631 20.8337 12.4998C20.8337 10.2366 20.8232 9.95261 20.7833 9.0637C20.7417 8.17655 20.601 7.57105 20.3962 7.04123C20.1826 6.49306 19.8979 6.02815 19.4343 5.56491C18.9708 5.10141 18.5072 4.81666 17.9587 4.60408C17.4274 4.39792 16.8215 4.25742 15.9343 4.21684C15.0454 4.17642 14.7624 4.1665 12.4985 4.1665H12.5011ZM11.7535 5.66824C11.9754 5.66791 12.223 5.66824 12.5011 5.66824C14.7262 5.66824 14.9898 5.67624 15.8685 5.71616C16.681 5.75332 17.122 5.88907 17.4157 6.00315C17.8047 6.15415 18.0819 6.33473 18.3734 6.62648C18.6651 6.91814 18.8456 7.19589 18.997 7.5848C19.1111 7.87813 19.247 8.31913 19.284 9.13162C19.3239 10.0101 19.3326 10.2739 19.3326 12.4979C19.3326 14.7219 19.3239 14.9858 19.284 15.8642C19.2468 16.6767 19.1111 17.1177 18.997 17.4111C18.846 17.8 18.6651 18.0769 18.3734 18.3684C18.0817 18.6601 17.8048 18.8406 17.4157 18.9917C17.1223 19.1063 16.681 19.2417 15.8685 19.2789C14.99 19.3188 14.7262 19.3274 12.5011 19.3274C10.2759 19.3274 10.0122 19.3188 9.13374 19.2789C8.32124 19.2414 7.88024 19.1056 7.58624 18.9915C7.19741 18.8404 6.91958 18.6599 6.62791 18.3683C6.33624 18.0766 6.15574 17.7995 6.00433 17.4105C5.89024 17.117 5.75433 16.676 5.71733 15.8636C5.67741 14.9851 5.66941 14.7212 5.66941 12.4958C5.66941 10.2705 5.67741 10.008 5.71733 9.12954C5.75449 8.31705 5.89024 7.87605 6.00433 7.5823C6.15541 7.19339 6.33624 6.91564 6.62799 6.62398C6.91966 6.33232 7.19741 6.15173 7.58633 6.0004C7.88008 5.88582 8.32124 5.7504 9.13374 5.71307C9.90249 5.67832 10.2004 5.66791 11.7535 5.66616V5.66824ZM16.9494 7.05189C16.3973 7.05189 15.9494 7.49939 15.9494 8.05155C15.9494 8.60363 16.3973 9.05154 16.9494 9.05154C17.5015 9.05154 17.9494 8.60363 17.9494 8.05155C17.9494 7.49947 17.5015 7.05156 16.9494 7.05156V7.05189ZM12.5011 8.2203C10.1377 8.2203 8.22158 10.1364 8.22158 12.4998C8.22158 14.8632 10.1377 16.7785 12.5011 16.7785C14.8645 16.7785 16.78 14.8632 16.78 12.4998C16.78 10.1365 14.8643 8.2203 12.5009 8.2203H12.5011ZM12.5011 9.72203C14.0352 9.72203 15.2789 10.9656 15.2789 12.4998C15.2789 14.0339 14.0352 15.2776 12.5011 15.2776C10.9669 15.2776 9.72333 14.0339 9.72333 12.4998C9.72333 10.9656 10.9669 9.72203 12.5011 9.72203Z" fill="#FFFFF4"/>
<defs>
<radialGradient id="paint0_radial_1727_6508" cx="0" cy="0" r="1" gradientUnits="userSpaceOnUse" gradientTransform="translate(6.64087 26.9255) rotate(-90) scale(24.7769 23.0444)">
<stop stop-color="#FFDD55"/>
<stop offset="0.1" stop-color="#FFDD55"/>
<stop offset="0.5" stop-color="#FF543E"/>
<stop offset="1" stop-color="#C837AB"/>
</radialGradient>
<radialGradient id="paint1_radial_1727_6508" cx="0" cy="0" r="1" gradientUnits="userSpaceOnUse" gradientTransform="translate(-4.18736 1.80047) rotate(78.681) scale(11.0754 45.6531)">
<stop stop-color="#3771C8"/>
<stop offset="0.128" stop-color="#3771C8"/>
<stop offset="1" stop-color="#6600FF" stop-opacity="0"/>
</radialGradient>
</defs>
</svg>
