<svg width="30" height="30" viewBox="0 0 30 30" fill="none" xmlns="http://www.w3.org/2000/svg">
<path d="M30.0002 0H0.000341773L0.000244141 7.03125V30H7.03149H22.969H30.0002V7.03125V0Z" fill="url(#paint0_radial_2645_6835)"/>
<path d="M30.0002 30V0L0.000244141 1.90735e-05V30H30.0002Z" fill="url(#paint1_radial_2645_6835)"/>
<path d="M15.0011 5C12.2853 5 11.9444 5.0119 10.8778 5.0604C9.81324 5.1092 9.08654 5.2777 8.45074 5.52499C7.79294 5.78039 7.23504 6.12209 6.67924 6.67808C6.12294 7.23398 5.78124 7.79187 5.52504 8.44937C5.27704 9.08536 5.10834 9.81235 5.06044 10.8764C5.01274 11.9431 5.00024 12.2841 5.00024 15C5.00024 17.7159 5.01224 18.0557 5.06064 19.1223C5.10964 20.1868 5.27814 20.9135 5.52524 21.5493C5.78084 22.2071 6.12254 22.765 6.67854 23.3208C7.23424 23.8771 7.79214 24.2196 8.44944 24.475C9.08574 24.7223 9.81254 24.8908 10.8769 24.9396C11.9436 24.9881 12.2842 25 14.9999 25C17.716 25 18.0558 24.9881 19.1224 24.9396C20.187 24.8908 20.9145 24.7223 21.5508 24.475C22.2083 24.2196 22.7654 23.8771 23.321 23.3208C23.8773 22.765 24.2189 22.2071 24.4752 21.5496C24.721 20.9135 24.8898 20.1866 24.9398 19.1225C24.9877 18.0559 25.0002 17.7159 25.0002 15C25.0002 12.2841 24.9877 11.9433 24.9398 10.8766C24.8898 9.81205 24.721 9.08546 24.4752 8.44967C24.2189 7.79187 23.8773 7.23398 23.321 6.67808C22.7648 6.12189 22.2085 5.78019 21.5502 5.52509C20.9127 5.2777 20.1856 5.1091 19.121 5.0604C18.0543 5.0119 17.7147 5 14.998 5H15.0011ZM14.104 6.80208C14.3703 6.80168 14.6674 6.80208 15.0011 6.80208C17.6712 6.80208 17.9876 6.81168 19.042 6.85958C20.017 6.90418 20.5462 7.06708 20.8987 7.20398C21.3654 7.38518 21.6981 7.60187 22.0479 7.95197C22.3979 8.30197 22.6145 8.63526 22.7962 9.10196C22.9331 9.45396 23.0962 9.98315 23.1406 10.9581C23.1885 12.0123 23.1989 12.3289 23.1989 14.9977C23.1989 17.6665 23.1885 17.9832 23.1406 19.0373C23.096 20.0122 22.9331 20.5414 22.7962 20.8935C22.615 21.3602 22.3979 21.6925 22.0479 22.0423C21.6979 22.3923 21.3656 22.6089 20.8987 22.7902C20.5466 22.9277 20.017 23.0902 19.042 23.1348C17.9878 23.1827 17.6712 23.1931 15.0011 23.1931C12.3309 23.1931 12.0144 23.1827 10.9603 23.1348C9.98534 23.0898 9.45614 22.9269 9.10334 22.79C8.63674 22.6087 8.30334 22.3921 7.95334 22.0421C7.60334 21.6921 7.38674 21.3596 7.20504 20.8927C7.06814 20.5406 6.90504 20.0114 6.86064 19.0365C6.81274 17.9823 6.80314 17.6657 6.80314 14.9952C6.80314 12.3248 6.81274 12.0098 6.86064 10.9556C6.90524 9.98065 7.06814 9.45146 7.20504 9.09896C7.38634 8.63226 7.60334 8.29897 7.95344 7.94897C8.30344 7.59897 8.63674 7.38228 9.10344 7.20068C9.45594 7.06318 9.98534 6.90068 10.9603 6.85588C11.8828 6.81418 12.2403 6.80168 14.104 6.79958V6.80208ZM20.3391 8.46247C19.6766 8.46247 19.1391 8.99946 19.1391 9.66205C19.1391 10.3245 19.6766 10.862 20.3391 10.862C21.0016 10.862 21.5391 10.3245 21.5391 9.66205C21.5391 8.99956 21.0016 8.46207 20.3391 8.46207V8.46247ZM15.0011 9.86455C12.1651 9.86455 9.86574 12.1639 9.86574 15C9.86574 17.8361 12.1651 20.1343 15.0011 20.1343C17.8372 20.1343 20.1358 17.8361 20.1358 15C20.1358 12.164 17.837 9.86455 15.0009 9.86455H15.0011ZM15.0011 11.6666C16.842 11.6666 18.3345 13.1589 18.3345 15C18.3345 16.8409 16.842 18.3334 15.0011 18.3334C13.1601 18.3334 11.6678 16.8409 11.6678 15C11.6678 13.1589 13.1601 11.6666 15.0011 11.6666Z" fill="#FFFFF4"/>
<defs>
<radialGradient id="paint0_radial_2645_6835" cx="0" cy="0" r="1" gradientUnits="userSpaceOnUse" gradientTransform="translate(7.96899 32.3106) rotate(-90) scale(29.7322 27.6533)">
<stop stop-color="#FFDD55"/>
<stop offset="0.1" stop-color="#FFDD55"/>
<stop offset="0.5" stop-color="#FF543E"/>
<stop offset="1" stop-color="#C837AB"/>
</radialGradient>
<radialGradient id="paint1_radial_2645_6835" cx="0" cy="0" r="1" gradientUnits="userSpaceOnUse" gradientTransform="translate(-5.02488 2.16057) rotate(78.681) scale(13.2905 54.7837)">
<stop stop-color="#3771C8"/>
<stop offset="0.128" stop-color="#3771C8"/>
<stop offset="1" stop-color="#6600FF" stop-opacity="0"/>
</radialGradient>
</defs>
</svg>
