<svg width="24" height="24" viewBox="0 0 24 24" fill="none" xmlns="http://www.w3.org/2000/svg">
<path d="M19.0002 1V16.84L12.0002 23L5.00024 16.84V1H19.0002Z" stroke="white" stroke-linecap="round" stroke-linejoin="round"/>
<path d="M14.2502 6.75758C14.2502 6.75758 13.5002 5.57576 12.0002 5.57576M12.0002 5.57576C12.0002 4.80654 12.0002 4 12.0002 4M12.0002 5.57576C10.1252 5.57576 9.46899 7.54545 9.75024 8.72727C10.219 10.697 15.0002 9.90909 15.0002 13.0606C15.0002 14.512 13.5002 15.4242 12.0002 15.4242M12.0002 15.4242C12.0002 16.0396 12.0002 17 12.0002 17M12.0002 15.4242C10.5002 15.4242 9.00024 13.0606 9.00024 13.0606" stroke="white" stroke-linecap="round" stroke-linejoin="round"/>
</svg>
