<svg width="20" height="20" viewBox="0 0 20 20" fill="none" xmlns="http://www.w3.org/2000/svg">
<path d="M15.8334 0.833374V14.0334L10.0001 19.1667L4.16675 14.0334V0.833374H15.8334Z" stroke="white" stroke-linecap="round" stroke-linejoin="round"/>
<path d="M11.875 5.63135C11.875 5.63135 11.25 4.64651 10 4.64651M10 4.64651C10 4.00549 10 3.33337 10 3.33337M10 4.64651C8.4375 4.64651 7.89062 6.28792 8.125 7.27277C8.51562 8.91418 12.5 8.25762 12.5 10.8839C12.5 12.0933 11.25 12.8536 10 12.8536M10 12.8536C10 13.3664 10 14.1667 10 14.1667M10 12.8536C8.75 12.8536 7.5 10.8839 7.5 10.8839" stroke="white" stroke-linecap="round" stroke-linejoin="round"/>
</svg>
