<svg width="16" height="16" viewBox="0 0 16 16" fill="none" xmlns="http://www.w3.org/2000/svg">
<path d="M9.81114 1.62483C9.83109 1.54804 9.88064 1.48229 9.94896 1.44195C10.0173 1.40161 10.0988 1.38997 10.1757 1.40957C11.2378 1.68621 12.2069 2.24124 12.9829 3.01739C13.759 3.79355 14.3139 4.76271 14.5903 5.82487C14.6099 5.90164 14.5984 5.98306 14.5582 6.05135C14.518 6.11964 14.4525 6.16926 14.3758 6.18938C14.3514 6.19633 14.3262 6.19987 14.3008 6.19988C14.2345 6.19966 14.1701 6.17746 14.1177 6.13675C14.0653 6.09604 14.0279 6.03911 14.0113 5.97487C13.7609 5.01641 13.2596 4.14196 12.5591 3.44148C11.8586 2.74099 10.9841 2.23976 10.0256 1.98933C9.949 1.96922 9.88342 1.9196 9.84323 1.85131C9.80304 1.78301 9.79151 1.7016 9.81114 1.62483ZM9.42562 4.38936C10.5507 4.69161 11.3089 5.44987 11.6112 6.57488C11.6278 6.63912 11.6652 6.69604 11.7176 6.73675C11.77 6.77747 11.8344 6.79967 11.9007 6.79988C11.9261 6.79987 11.9513 6.79634 11.9757 6.78938C12.0524 6.76881 12.1179 6.71864 12.1577 6.64989C12.1975 6.58113 12.2084 6.49941 12.188 6.42263C11.828 5.07261 10.9242 4.1726 9.57563 3.8096C9.50068 3.79511 9.42302 3.80973 9.35847 3.8505C9.29393 3.89126 9.24735 3.9551 9.22823 4.029C9.2091 4.10291 9.21888 4.18132 9.25555 4.24827C9.29223 4.31523 9.35305 4.36568 9.42562 4.38936ZM15.1963 11.7934C15.0718 12.7377 14.6077 13.6042 13.8908 14.2312C13.1738 14.8581 12.2531 15.2025 11.3007 15.2C5.51048 15.2 0.800301 10.4899 0.800301 4.69986C0.798328 3.74786 1.14298 2.8277 1.76988 2.11123C2.39679 1.39477 3.26307 0.931009 4.20693 0.806567C4.40029 0.78306 4.59607 0.822917 4.76485 0.920153C4.93363 1.01739 5.06631 1.16676 5.14296 1.34582L6.72552 4.88136C6.78468 5.01845 6.80879 5.16811 6.7957 5.31684C6.78261 5.46558 6.73272 5.60872 6.65052 5.73337C6.64377 5.74312 6.63702 5.75287 6.62952 5.76187L5.03946 7.65264C5.01451 7.69406 5.00022 7.74102 4.99786 7.78932C4.9955 7.83762 5.00516 7.88574 5.02596 7.92939C5.61398 9.13316 6.87478 10.3842 8.09282 10.9722C8.13681 10.9926 8.18515 11.0018 8.23355 10.9991C8.28196 10.9963 8.32894 10.9817 8.37033 10.9564L10.2357 9.37241L10.2642 9.35066C10.389 9.26821 10.5324 9.21817 10.6814 9.20508C10.8305 9.19198 10.9804 9.21624 11.1177 9.27566L14.6593 10.8627C14.8366 10.9398 14.9843 11.072 15.0807 11.2396C15.177 11.4072 15.2167 11.6014 15.1941 11.7934H15.1963ZM14.4201 11.4094L10.8769 9.82242C10.8339 9.80435 10.7872 9.79676 10.7406 9.80028C10.6941 9.8038 10.649 9.81833 10.6092 9.84267L8.7506 11.4267L8.72285 11.4477C8.59362 11.534 8.44426 11.5853 8.2893 11.5968C8.13434 11.6082 7.97905 11.5793 7.83856 11.5129C6.48851 10.8612 5.14521 9.52691 4.49344 8.19265C4.42641 8.05324 4.39644 7.89891 4.40642 7.74455C4.41641 7.59018 4.46601 7.441 4.55044 7.31139C4.55719 7.30089 4.56469 7.29189 4.57219 7.28214L6.1615 5.39212C6.18532 5.35161 6.1993 5.30607 6.20229 5.25917C6.20529 5.21227 6.19723 5.16533 6.17875 5.12211L4.59319 1.58658C4.57085 1.53177 4.5328 1.48479 4.48382 1.45156C4.43484 1.41833 4.37712 1.40033 4.31793 1.39982C4.30594 1.39908 4.29392 1.39908 4.28193 1.39982C3.48259 1.50573 2.74919 1.89914 2.21885 2.50649C1.68851 3.11385 1.39753 3.89356 1.40032 4.69986C1.40032 10.1584 5.84199 14.6 11.3007 14.6C12.107 14.6028 12.8867 14.3118 13.4941 13.7815C14.1015 13.2511 14.4949 12.5178 14.6008 11.7184C14.6077 11.6541 14.5936 11.5892 14.5607 11.5335C14.5277 11.4778 14.4776 11.4343 14.4178 11.4094H14.4201Z" fill="#272727"/>
</svg>
