<svg width="24" height="24" viewBox="0 0 24 24" fill="none" xmlns="http://www.w3.org/2000/svg">
<path d="M14.7165 2.43721C14.7464 2.32203 14.8207 2.2234 14.9232 2.16289C15.0257 2.10238 15.1479 2.08492 15.2632 2.11433C16.8565 2.52928 18.3101 3.36183 19.4742 4.52606C20.6382 5.69029 21.4705 7.14403 21.8852 8.73728C21.9147 8.85243 21.8974 8.97456 21.8371 9.077C21.7768 9.17943 21.6784 9.25386 21.5635 9.28403C21.5269 9.29447 21.489 9.29977 21.451 9.29978C21.3514 9.29946 21.2548 9.26616 21.1763 9.20509C21.0977 9.14402 21.0416 9.05863 21.0167 8.96228C20.641 7.52459 19.8892 6.21291 18.8384 5.16219C17.7877 4.11146 16.476 3.3596 15.0382 2.98396C14.9233 2.9538 14.8249 2.87937 14.7646 2.77693C14.7043 2.67449 14.687 2.55236 14.7165 2.43721ZM14.1382 6.584C15.8258 7.03738 16.9632 8.17477 17.4166 9.86229C17.4414 9.95864 17.4976 10.044 17.5761 10.1051C17.6547 10.1662 17.7513 10.1995 17.8508 10.1998C17.8889 10.1998 17.9267 10.1945 17.9633 10.184C18.0784 10.1532 18.1766 10.0779 18.2363 9.9748C18.296 9.87167 18.3123 9.74908 18.2817 9.63391C17.7417 7.60889 16.386 6.25887 14.3632 5.71437C14.2508 5.69263 14.1343 5.71457 14.0375 5.77571C13.9406 5.83686 13.8708 5.93261 13.8421 6.04347C13.8134 6.15433 13.8281 6.27195 13.8831 6.37238C13.9381 6.47281 14.0293 6.54849 14.1382 6.584ZM22.7943 17.6901C22.6075 19.1065 21.9114 20.4063 20.8359 21.3467C19.7605 22.2871 18.3794 22.8037 16.9508 22.7999C8.26547 22.7999 1.20021 15.7349 1.20021 7.04976C1.19725 5.62176 1.71423 4.24151 2.65458 3.16682C3.59494 2.09213 4.89436 1.39648 6.31015 1.20982C6.6002 1.17456 6.89385 1.23434 7.14703 1.3802C7.4002 1.52605 7.59922 1.7501 7.7142 2.0187L10.088 7.32201C10.1768 7.52765 10.2129 7.75213 10.1933 7.97524C10.1737 8.19834 10.0988 8.41305 9.97554 8.60003C9.96541 8.61465 9.95529 8.62928 9.94404 8.64278L7.55894 11.4789C7.52152 11.5411 7.50008 11.6115 7.49655 11.6839C7.49301 11.7564 7.50749 11.8286 7.53869 11.8941C8.42073 13.6997 10.3119 15.5762 12.139 16.4582C12.205 16.4888 12.2775 16.5027 12.3501 16.4986C12.4227 16.4944 12.4932 16.4725 12.5553 16.4346L15.3532 14.0586L15.396 14.026C15.5832 13.9023 15.7983 13.8272 16.0219 13.8076C16.2454 13.7879 16.4703 13.8243 16.6763 13.9135L21.9887 16.294C22.2547 16.4097 22.4763 16.6079 22.6207 16.8594C22.7652 17.1108 22.8249 17.4021 22.7909 17.6901H22.7943ZM21.6298 17.1141L16.3151 14.7336C16.2506 14.7065 16.1805 14.6951 16.1107 14.7004C16.0408 14.7057 15.9733 14.7275 15.9135 14.764L13.1257 17.14L13.084 17.1715C12.8902 17.3009 12.6661 17.3779 12.4337 17.3951C12.2013 17.4123 11.9683 17.3689 11.7576 17.2694C9.73253 16.2917 7.71758 14.2903 6.73991 12.2889C6.63937 12.0798 6.59441 11.8483 6.60939 11.6168C6.62436 11.3852 6.69877 11.1615 6.82542 10.9671C6.83554 10.9513 6.84679 10.9378 6.85804 10.9232L9.24201 8.08814C9.27774 8.02738 9.2987 7.95907 9.3032 7.88873C9.30769 7.81838 9.2956 7.74796 9.26788 7.68314L6.88955 2.37983C6.85603 2.29762 6.79895 2.22715 6.72548 2.17731C6.65201 2.12746 6.56544 2.10046 6.47666 2.09971C6.45867 2.09859 6.44064 2.09859 6.42265 2.09971C5.22364 2.25857 4.12354 2.84868 3.32803 3.75971C2.53252 4.67074 2.09605 5.84031 2.10024 7.04976C2.10024 15.2376 8.76274 21.8999 16.9508 21.8999C18.1603 21.9041 19.3299 21.4677 20.2409 20.6722C21.152 19.8767 21.7421 18.7766 21.901 17.5776C21.9113 17.4811 21.8902 17.3838 21.8407 17.3003C21.7913 17.2167 21.7161 17.1514 21.6265 17.1141H21.6298Z" fill="white"/>
</svg>
