<svg width="20" height="20" viewBox="0 0 20 20" fill="none" xmlns="http://www.w3.org/2000/svg">
<path d="M12.2636 2.03105C12.2885 1.93507 12.3504 1.85288 12.4358 1.80245C12.5212 1.75203 12.6231 1.73748 12.7192 1.76198C14.0469 2.10778 15.2582 2.80156 16.2283 3.77176C17.1984 4.74195 17.892 5.9534 18.2375 7.28111C18.2621 7.37707 18.2477 7.47884 18.1974 7.56421C18.1472 7.64957 18.0652 7.71159 17.9694 7.73674C17.9389 7.74543 17.9074 7.74985 17.8756 7.74986C17.7927 7.74959 17.7122 7.72184 17.6467 7.67095C17.5813 7.62006 17.5345 7.5489 17.5138 7.46861C17.2007 6.27053 16.5742 5.17747 15.6985 4.30186C14.8229 3.42625 13.7298 2.79971 12.5317 2.48668C12.4359 2.46154 12.3539 2.39951 12.3037 2.31415C12.2534 2.22878 12.239 2.12701 12.2636 2.03105ZM11.7817 5.48671C13.188 5.86453 14.1358 6.81235 14.5136 8.21862C14.5344 8.29891 14.5811 8.37007 14.6466 8.42096C14.7121 8.47185 14.7926 8.4996 14.8755 8.49987C14.9072 8.49986 14.9388 8.49544 14.9693 8.48674C15.0652 8.46102 15.147 8.39832 15.1967 8.31238C15.2465 8.22643 15.2601 8.12427 15.2346 8.0283C14.7846 6.34078 13.6549 5.21577 11.9692 4.76202C11.8755 4.7439 11.7784 4.76218 11.6977 4.81314C11.617 4.86409 11.5588 4.94389 11.5349 5.03627C11.511 5.12865 11.5232 5.22667 11.5691 5.31036C11.6149 5.39405 11.6909 5.45711 11.7817 5.48671ZM18.9951 14.7418C18.8394 15.9221 18.2593 17.0053 17.3631 17.789C16.4669 18.5726 15.316 19.0031 14.1255 19C6.88773 19 1.00001 13.1124 1.00001 5.87484C0.997544 4.68484 1.42836 3.53464 2.21199 2.63906C2.99562 1.74348 4.07847 1.16378 5.25829 1.00822C5.5 0.97884 5.74472 1.02866 5.95569 1.15021C6.16667 1.27175 6.33252 1.45846 6.42834 1.68229L8.40654 6.10172C8.48048 6.27308 8.51063 6.46015 8.49426 6.64607C8.47789 6.83199 8.41553 7.01092 8.31279 7.16673C8.30435 7.17892 8.29591 7.1911 8.28653 7.20235L6.29896 9.56582C6.26777 9.61759 6.2499 9.67629 6.24696 9.73666C6.24401 9.79703 6.25608 9.85719 6.28208 9.91176C7.01711 11.4165 8.59311 12.9802 10.1157 13.7152C10.1706 13.7407 10.2311 13.7523 10.2916 13.7488C10.3521 13.7454 10.4108 13.7271 10.4626 13.6955L12.7942 11.7155L12.8298 11.6883C12.9859 11.5853 13.1651 11.5227 13.3514 11.5064C13.5377 11.49 13.7251 11.5203 13.8967 11.5946L18.3238 13.5784C18.5454 13.6748 18.7301 13.84 18.8505 14.0495C18.9709 14.2591 19.0206 14.5018 18.9922 14.7418H18.9951ZM18.0247 14.2618L13.5958 12.278C13.542 12.2554 13.4836 12.246 13.4254 12.2504C13.3672 12.2548 13.3109 12.2729 13.2611 12.3033L10.9379 14.2834L10.9032 14.3096C10.7417 14.4175 10.555 14.4817 10.3613 14.496C10.1676 14.5103 9.97345 14.4742 9.79784 14.3912C8.11028 13.5765 6.43115 11.9087 5.61643 10.2408C5.53264 10.0666 5.49518 9.87365 5.50766 9.6807C5.52014 9.48774 5.58214 9.30126 5.68769 9.13925C5.69612 9.12613 5.7055 9.11487 5.71487 9.10269L7.70151 6.74016C7.73129 6.68953 7.74876 6.6326 7.7525 6.57398C7.75625 6.51536 7.74617 6.45667 7.72308 6.40266L5.74113 1.98324C5.7132 1.91472 5.66563 1.856 5.6044 1.81446C5.54318 1.77293 5.47103 1.75043 5.39705 1.74979C5.38206 1.74886 5.36703 1.74886 5.35205 1.74979C4.35287 1.88218 3.43612 2.37394 2.7732 3.13313C2.11027 3.89232 1.74655 4.86697 1.75004 5.87484C1.75004 12.698 7.30212 18.25 14.1255 18.25C15.1334 18.2535 16.1081 17.8898 16.8673 17.2268C17.6265 16.5639 18.1183 15.6472 18.2507 14.6481C18.2593 14.5676 18.2417 14.4865 18.2005 14.4169C18.1592 14.3473 18.0966 14.2929 18.0219 14.2618H18.0247Z" fill="white"/>
</svg>
