<svg width="30" height="30" viewBox="0 0 30 30" fill="none" xmlns="http://www.w3.org/2000/svg">
<rect width="30" height="30" transform="translate(0.000244141)" fill="url(#paint0_linear_2645_6833)"/>
<path d="M7.23747 13.888C12.0702 11.6302 15.2921 10.1416 16.903 9.42245C21.5078 7.36885 22.4635 7.01219 23.0876 7.00011C23.2249 6.99774 23.5305 7.03413 23.7299 7.20705C23.8957 7.35288 23.9423 7.5501 23.9656 7.68857C23.9863 7.8269 24.0148 8.14218 23.9915 8.38829C23.7429 11.1994 22.6629 18.021 22.1138 21.1696C21.8833 22.5018 21.4249 22.9485 20.9821 22.9921C20.0186 23.0871 19.2883 22.3099 18.3559 21.6546C16.8978 20.6288 16.0742 19.9904 14.6575 18.9896C13.0207 17.8329 14.0826 17.1971 15.0149 16.1582C15.2584 15.8863 19.5006 11.7488 19.5809 11.3735C19.5913 11.3266 19.6016 11.1516 19.5032 11.0594C19.4074 10.9669 19.265 10.9985 19.1614 11.0235C19.0137 11.0591 16.6854 12.7113 12.1686 15.9799C11.5082 16.4671 10.9099 16.7046 10.3712 16.6921C9.78075 16.6785 8.6412 16.3332 7.7943 16.0382C6.75834 15.6763 5.93216 15.4849 6.00468 14.8702C6.04094 14.5502 6.45273 14.2227 7.23747 13.888Z" fill="#FFFFF4"/>
<defs>
<linearGradient id="paint0_linear_2645_6833" x1="1500" y1="0" x2="1500" y2="3000" gradientUnits="userSpaceOnUse">
<stop stop-color="#2AABEE"/>
<stop offset="1" stop-color="#229ED9"/>
</linearGradient>
</defs>
</svg>
