<svg width="25" height="25" viewBox="0 0 25 25" fill="none" xmlns="http://www.w3.org/2000/svg">
<rect width="25" height="25" transform="translate(0.000244141)" fill="url(#paint0_linear_1727_6506)"/>
<path d="M6.03127 11.5735C10.0586 9.69201 12.7434 8.4515 14.0858 7.8522C17.9232 6.14087 18.7196 5.84365 19.2397 5.83358C19.3541 5.83162 19.6088 5.86194 19.775 6.00604C19.9131 6.12756 19.952 6.29191 19.9714 6.40731C19.9887 6.52258 20.0124 6.78531 19.993 6.9904C19.7858 9.33298 18.8858 15.0177 18.4282 17.6415C18.2362 18.7517 17.8541 19.1239 17.4851 19.1602C16.6822 19.2394 16.0736 18.5917 15.2966 18.0456C14.0815 17.1908 13.3952 16.6589 12.2146 15.8248C10.8506 14.8609 11.7355 14.3311 12.5125 13.4654C12.7154 13.2387 16.2506 9.79085 16.3175 9.47812C16.3261 9.439 16.3347 9.29316 16.2527 9.21631C16.1729 9.13923 16.0542 9.16562 15.9678 9.18645C15.8448 9.21608 13.9046 10.5929 10.1406 13.3167C9.59022 13.7228 9.09166 13.9207 8.64275 13.9103C8.15067 13.8989 7.20104 13.6112 6.49529 13.3654C5.63199 13.0637 4.94351 12.9043 5.00394 12.392C5.03416 12.1253 5.37732 11.8524 6.03127 11.5735Z" fill="#FFFFF4"/>
<defs>
<linearGradient id="paint0_linear_1727_6506" x1="1250" y1="0" x2="1250" y2="2500" gradientUnits="userSpaceOnUse">
<stop stop-color="#2AABEE"/>
<stop offset="1" stop-color="#229ED9"/>
</linearGradient>
</defs>
</svg>
