<svg width="30" height="30" viewBox="0 0 30 30" fill="none" xmlns="http://www.w3.org/2000/svg">
<rect width="30" height="30" transform="translate(0.000244141)" fill="#FFFFF4"/>
<path d="M27.1878 7.82609e-05H2.81285C1.26597 7.82609e-05 0.000244141 0 0.000244141 0V30.0001C0.000244141 30.0001 1.26597 30.0001 2.81285 30.0001H27.1878C28.7347 30.0001 30.0002 30 30.0002 30L30.0003 7.82609e-05C30.0003 7.82609e-05 28.7347 7.82609e-05 27.1878 7.82609e-05ZM24.2985 21.0001L21.5553 21.0413C21.5553 21.0413 20.9628 21.1595 20.1903 20.6251C19.1647 19.922 18.1972 18.0882 17.4416 18.3282C16.6803 18.5682 16.7028 20.2145 16.7028 20.2145C16.7028 20.2145 16.7085 20.567 16.5322 20.7526C16.3447 20.957 15.9697 20.9982 15.9697 20.9982H14.7453C14.7453 20.9982 12.0378 21.1632 9.65285 18.677C7.05035 15.9695 4.75535 10.5976 4.75535 10.5976C4.75535 10.5976 4.62035 10.2451 4.7666 10.0763C4.92972 9.8832 5.37035 9.87195 5.37035 9.87195L8.3066 9.85508C8.3066 9.85508 8.58222 9.90195 8.78097 10.0482C8.94597 10.1663 9.03222 10.3932 9.03222 10.3932C9.03222 10.3932 9.5066 11.5951 10.1347 12.6788C11.3591 14.7938 11.9328 15.257 12.3491 15.0338C12.9528 14.7057 12.771 12.0395 12.771 12.0395C12.771 12.0395 12.7822 11.072 12.4672 10.6445C12.2216 10.3107 11.7585 10.2113 11.5597 10.187C11.3947 10.1626 11.6647 9.78195 12.0172 9.60758C12.5441 9.34883 13.476 9.33195 14.5785 9.3432C15.4335 9.34883 15.6866 9.40695 16.0203 9.48383C17.0347 9.72945 16.6878 10.6726 16.6878 12.9357C16.6878 13.6632 16.5585 14.6813 17.0797 15.0151C17.3028 15.1613 17.8522 15.0376 19.2303 12.7013C19.881 11.5932 20.3722 10.2938 20.3722 10.2938C20.3722 10.2938 20.4772 10.0595 20.6422 9.96008C20.8128 9.8607 21.0416 9.8907 21.0416 9.8907L24.1297 9.87383C24.1297 9.87383 25.056 9.7632 25.2078 10.1851C25.3653 10.6238 24.8628 11.6495 23.6028 13.3313C21.5347 16.0913 21.3003 15.8326 23.0235 17.4263C24.6641 18.9507 25.0035 19.6932 25.0635 19.787C25.731 20.912 24.3022 21.0001 24.3022 21.0001H24.2985Z" fill="#0082DA"/>
</svg>
