<svg width="25" height="25" viewBox="0 0 25 25" fill="none" xmlns="http://www.w3.org/2000/svg">
<rect width="25" height="25" transform="translate(0.000244141)" fill="#FFFFF4"/>
<path d="M22.6566 6.52174e-05H2.34408C1.05502 6.52174e-05 0.000244141 0 0.000244141 0V25.0001C0.000244141 25.0001 1.05502 25.0001 2.34408 25.0001H22.6566C23.9456 25.0001 25.0002 25 25.0002 25L25.0003 6.52174e-05C25.0003 6.52174e-05 23.9456 6.52174e-05 22.6566 6.52174e-05ZM20.2488 17.5001L17.9628 17.5344C17.9628 17.5344 17.4691 17.6329 16.8253 17.1876C15.9706 16.6016 15.1644 15.0735 14.5347 15.2735C13.9003 15.4735 13.9191 16.8454 13.9191 16.8454C13.9191 16.8454 13.9238 17.1391 13.7769 17.2938C13.6206 17.4641 13.3081 17.4985 13.3081 17.4985H12.2878C12.2878 17.4985 10.0316 17.636 8.04408 15.5641C5.87533 13.3079 3.96283 8.83131 3.96283 8.83131C3.96283 8.83131 3.85033 8.53756 3.9722 8.39694C4.10814 8.236 4.47533 8.22663 4.47533 8.22663L6.9222 8.21256C6.9222 8.21256 7.15189 8.25163 7.31752 8.3735C7.45502 8.47194 7.52689 8.661 7.52689 8.661C7.52689 8.661 7.9222 9.66256 8.44564 10.5657C9.46595 12.3282 9.94408 12.7141 10.291 12.5282C10.7941 12.2548 10.6425 10.0329 10.6425 10.0329C10.6425 10.0329 10.6519 9.22663 10.3894 8.87038C10.1847 8.59225 9.79877 8.50944 9.63314 8.48913C9.49564 8.46881 9.72064 8.15163 10.0144 8.00631C10.4535 7.79069 11.23 7.77663 12.1488 7.786C12.8613 7.79069 13.0722 7.83913 13.3503 7.90319C14.1956 8.10788 13.9066 8.89381 13.9066 10.7798C13.9066 11.386 13.7988 12.2344 14.2331 12.5126C14.4191 12.6344 14.8769 12.5313 16.0253 10.5844C16.5675 9.661 16.9769 8.57819 16.9769 8.57819C16.9769 8.57819 17.0644 8.38288 17.2019 8.30006C17.3441 8.21725 17.5347 8.24225 17.5347 8.24225L20.1081 8.22819C20.1081 8.22819 20.88 8.136 21.0066 8.48756C21.1378 8.85319 20.7191 9.70788 19.6691 11.1094C17.9456 13.4094 17.7503 13.1938 19.1863 14.5219C20.5535 15.7923 20.8363 16.411 20.8863 16.4891C21.4425 17.4266 20.2519 17.5001 20.2519 17.5001H20.2488Z" fill="#0082DA"/>
</svg>
