<svg width="20" height="20" viewBox="0 0 20 20" fill="none" xmlns="http://www.w3.org/2000/svg">
<rect width="20" height="20" rx="10" fill="white"/>
<path d="M9.064 12.16V11.74C9.064 11.356 9.136 10.992 9.28 10.648C9.432 10.304 9.696 9.928 10.072 9.52C10.368 9.2 10.576 8.924 10.696 8.692C10.816 8.452 10.876 8.208 10.876 7.96C10.876 7.648 10.76 7.404 10.528 7.228C10.296 7.052 9.98 6.964 9.58 6.964C9.268 6.964 8.964 7.008 8.668 7.096C8.372 7.184 8.092 7.304 7.828 7.456V6.376C8.1 6.232 8.4 6.124 8.728 6.052C9.064 5.972 9.4 5.932 9.736 5.932C10.192 5.932 10.6 6.004 10.96 6.148C11.32 6.284 11.6 6.492 11.8 6.772C12.008 7.052 12.112 7.404 12.112 7.828C12.112 8.084 12.068 8.332 11.98 8.572C11.892 8.812 11.764 9.048 11.596 9.28C11.428 9.512 11.216 9.752 10.96 10C10.568 10.376 10.292 10.704 10.132 10.984C9.98 11.264 9.888 11.548 9.856 11.836L9.808 12.16H9.064ZM8.716 14.5V13.072H10.156V14.5H8.716Z" fill="#ABABAB"/>
</svg>
